<svg width="1240" height="1240" viewBox="0 0 1240 1240" fill="none" xmlns="http://www.w3.org/2000/svg">
<circle cx="620" cy="620" r="620" fill="#FEF4E2"/>
<circle cx="620" cy="620" r="472.381" fill="#FE4C55"/>
<circle cx="622.952" cy="622.952" r="310" fill="black"/>
<circle cx="932.952" cy="885.714" r="206.667" fill="#FEF4E2"/>
<path d="M1089.92 886.208C1089.92 799.831 1019.82 729.732 933.447 729.732C847.07 729.732 776.971 799.831 776.971 886.208C776.971 972.586 847.07 1042.68 933.447 1042.68C1019.82 1042.68 1089.92 972.586 1089.92 886.208ZM933.447 776.97C993.803 776.97 1042.69 825.852 1042.69 886.208C1042.69 907.857 1036.37 927.979 1025.46 944.886L874.77 794.19C891.676 783.282 911.798 776.97 933.447 776.97ZM824.209 886.208C824.209 864.559 830.521 844.437 841.43 827.531L992.125 978.226C975.219 989.135 955.097 995.446 933.447 995.446C873.091 995.446 824.209 946.564 824.209 886.208Z" fill="#FE4C55" stroke="#FE4C55" stroke-width="17.7143"/>
</svg>
