<svg width="327" height="320" viewBox="0 0 327 320" fill="none" xmlns="http://www.w3.org/2000/svg">
<path d="M326.8 319.6L251.6 319.2L219.6 254.8H105.2L72 320L0 319.2L162.8 -4.76837e-06L326.8 319.6ZM157.6 152.4H168.8L165.2 145.2H161.2L157.6 152.4ZM174.4 163.2L170.8 156H155.6L152 163.2H174.4ZM180 174.4L176.4 167.2H150L146.4 174.4H180ZM185.2 185.2L181.6 178H144.4L140.8 185.2H185.2ZM190.8 196L187.2 188.8H138.8L135.2 196H190.8ZM196 207.2L192.4 200H133.2L129.6 207.2H196ZM201.6 218L198 210.8H127.6L124 218H201.6ZM207.2 229.2L203.6 221.6H122L118.4 229.2H207.2ZM208.8 232.8H116.4L112.8 240H212.4L208.8 232.8ZM110.8 243.6L107.2 250.8H218L214.4 243.6H110.8Z" fill="white"/>
</svg>
