<svg width="239" height="51" viewBox="0 0 239 51" fill="none" xmlns="http://www.w3.org/2000/svg">
<path d="M40.85 39.95L31.45 39.9L27.45 31.85H13.15L9 40L0 39.9L20.35 -5.96046e-07L40.85 39.95ZM19.7 19.05H21.1L20.65 18.15H20.15L19.7 19.05ZM21.8 20.4L21.35 19.5H19.45L19 20.4H21.8ZM22.5 21.8L22.05 20.9H18.75L18.3 21.8H22.5ZM23.15 23.15L22.7 22.25H18.05L17.6 23.15H23.15ZM23.85 24.5L23.4 23.6H17.35L16.9 24.5H23.85ZM24.5 25.9L24.05 25H16.65L16.2 25.9H24.5ZM25.2 27.25L24.75 26.35H15.95L15.5 27.25H25.2ZM25.9 28.65L25.45 27.7H15.25L14.8 28.65H25.9ZM26.1 29.1H14.55L14.1 30H26.55L26.1 29.1ZM13.85 30.45L13.4 31.35H27.25L26.8 30.45H13.85ZM77.4953 16.05L82.9953 16.1L83.0453 20.1C83.0786 22.0333 82.812 23.8833 82.2453 25.65C82.112 26.0167 81.6953 27.0167 80.9953 28.65C79.562 31.95 77.2953 34.6333 74.1953 36.7C70.862 38.9 67.1453 40 63.0453 40C57.9453 40 53.5286 38.1833 49.7953 34.55C45.8953 30.75 43.9453 26.05 43.9453 20.45C43.9453 17.6167 43.9453 16.2 43.9453 16.2H43.9953V14.85H44.4453V16.2H45.2953V11.75H45.7453V16.2H46.6953V9.2H47.1453V16.25H48.0953V7.15H48.5453V16.25H49.4953V5.8H49.9453V16.25H50.8453V4.65H51.3453V16.25H52.2453V3.35H52.7453V23.75C52.9453 24.45 53.2453 25.15 53.6453 25.85V2.7H54.0953V26.6C54.4953 27.1333 54.812 27.5167 55.0453 27.75V2.05H55.4953V28.25C55.8953 28.65 56.212 28.9333 56.4453 29.1V1.3H56.8953V29.45C57.162 29.6833 57.4786 29.9 57.8453 30.1V0.799998H58.2953V30.35C58.6953 30.55 59.012 30.7 59.2453 30.8V0.349998H59.6953V31C60.0953 31.1333 60.412 31.2333 60.6453 31.3V0.0999981H61.0953V31.45L61.9953 31.6V-5.96046e-07H62.4953V31.7C62.5953 31.7 62.7453 31.7167 62.9453 31.75C63.1453 31.75 63.2953 31.7667 63.3953 31.8V-5.96046e-07H63.8453V16.05H77.4953ZM73.1453 26.3V24.05C72.7786 24.05 72.4786 24.0333 72.2453 24V27.8C72.712 27.1333 73.012 26.6333 73.1453 26.3ZM70.3953 24H69.4453V30.35C69.812 30.15 70.1286 29.9333 70.3953 29.7V24ZM68.0453 31.05C68.2786 30.95 68.5953 30.8 68.9953 30.6V24H68.0453V31.05ZM67.5953 31.25V24H66.6453V31.5C66.8786 31.4667 67.1953 31.3833 67.5953 31.25ZM65.2453 31.75C65.4786 31.7167 65.7953 31.6667 66.1953 31.6V24H65.2453V31.75ZM63.8453 24V31.8H64.7953V24H63.8453ZM70.8453 24V29.3C71.212 29 71.512 28.7 71.7453 28.4V24H70.8453ZM73.6453 24.05V25.6C74.012 25 74.1953 24.4833 74.1953 24.05H73.6453ZM112.723 -5.96046e-07V8.45L86.5234 8.5V0.0499988L112.723 -5.96046e-07ZM103.073 15.8L103.123 24.15L86.5234 24.2V15.85L103.073 15.8ZM86.5234 31.75L113.473 31.7V39.95L86.5234 40V31.75ZM86.5234 30.4H103.073V30.85H86.5234V30.4ZM86.5234 29H103.073V29.5H86.5234V29ZM86.5234 27.65H103.073V28.1H86.5234V27.65ZM86.5234 26.3H103.073V26.75H86.5234V26.3ZM86.5234 24.95H103.073V25.4H86.5234V24.95ZM86.5234 14.75H103.073V15.25H86.5234V14.75ZM86.5234 13.4H103.073V13.85H86.5234V13.4ZM86.5234 12.05H103.073V12.5H86.5234V12.05ZM86.5234 10.7H103.073V11.15H86.5234V10.7ZM86.5234 9.35H103.073V9.8H86.5234V9.35ZM117.285 40V0.0499988L126.935 -5.96046e-07H127.385V0.899997L128.335 2.45V0.0499988H128.785V3.2L129.685 4.75V0.0499988H130.185V5.5L131.085 7.05V0.0499988H131.535V7.8L132.485 9.35V0.0499988H132.935V10.15L133.835 11.65V0.0499988H134.285V12.45L135.235 13.95V0.0499988H135.685V14.75L136.585 16.25V0.0499988H137.085V17.05L137.985 18.6V0.0499988H138.435V19.35L139.385 20.9V0.0499988H139.835V21.65L140.735 23.2V0.0499988H141.185V40H140.735V39.1L139.835 37.55V40H139.385V36.8L138.435 35.25V40H137.985V34.5L137.085 32.95V40H136.585V32.2L135.685 30.65V40H135.235V29.9L134.285 28.35V40H133.835V27.6L132.935 26.05V40H132.485V25.3L131.535 23.75V40H131.085V23L130.185 21.45V40H129.685V20.7L128.785 19.15V40H128.335V18.4L127.385 16.85V40H126.935V16.1L126.035 14.55V40H125.585V13.8L124.635 12.25V40H124.185V11.5L123.285 9.95V40H122.785V9.2L121.885 7.65V40H121.435V6.85L120.485 5.35V40H120.035V4.55L119.135 3.05V40H118.685V2.25L117.735 0.749999V40H117.285ZM146.289 -5.96046e-07H181.239V8.55H170.739V40H170.289V8.55H169.389V40H168.939V8.55H168.039V40H167.539V8.55H166.639V40H166.189V8.55H165.289V40H164.839V8.55H163.939V40H163.439V8.55H162.539V40H162.089V8.55H161.189V40H160.739V8.55H159.839V40H159.339V8.55H158.439V40H157.989V8.55H157.089V40H156.639V8.55H146.289V-5.96046e-07ZM201.807 20.05C201.773 14.8167 203.873 10.1167 208.107 5.95C212.173 1.98333 216.59 -5.96046e-07 221.357 -5.96046e-07C226.79 -5.96046e-07 231.64 1.95 235.907 5.85L230.207 11.75C228.107 9.48333 225.49 8.25 222.357 8.05V31.65H222.457L222.507 40C222.307 40 222.207 40 222.207 40C216.707 40.0333 211.94 38.0667 207.907 34.1C203.873 30.1333 201.84 25.45 201.807 20.05ZM216.407 9.35C216.007 9.55 215.707 9.71666 215.507 9.85V29.75C215.707 29.8833 216.007 30.05 216.407 30.25V9.35ZM214.157 28.75C214.257 28.8167 214.407 28.9333 214.607 29.1C214.807 29.2333 214.957 29.35 215.057 29.45V10.15C214.457 10.65 214.157 10.9 214.157 10.9V28.75ZM217.807 8.75C217.34 8.91667 217.04 9.03333 216.907 9.1V30.5C217.407 30.7 217.707 30.8167 217.807 30.85V8.75ZM219.157 8.3C219.057 8.33333 218.907 8.38333 218.707 8.45C218.507 8.48333 218.357 8.51666 218.257 8.55V31C218.657 31.1333 218.957 31.2167 219.157 31.25V8.3ZM220.507 8.1C220.407 8.1 220.257 8.13333 220.057 8.2C219.857 8.23333 219.707 8.26666 219.607 8.3V31.35C219.907 31.45 220.207 31.5 220.507 31.5V8.1ZM212.307 26.8V12.9C211.973 13.3333 211.673 13.8167 211.407 14.35V25.35C211.673 25.8833 211.973 26.3667 212.307 26.8ZM210.957 24.35V15.35C210.357 16.7833 210.057 18.3 210.057 19.9C210.057 21.5 210.357 22.9833 210.957 24.35ZM212.757 12.3V27.4C212.857 27.5 213.007 27.6667 213.207 27.9C213.407 28.1 213.557 28.25 213.657 28.35V11.3C213.457 11.5 213.157 11.8333 212.757 12.3ZM221.007 31.55C221.107 31.55 221.257 31.5667 221.457 31.6C221.657 31.6 221.807 31.6167 221.907 31.65V8.05H221.007V31.55Z" fill="white"/>
</svg>
